<svg version="1.1" xmlns="http://www.w3.org/2000/svg" width="1024" height="1024" viewBox="0 0 1024 1024">
<path fill="currentColor" d="M665.6 256c0-56.48 45.92-102.4 102.4-102.4s102.4 45.92 102.4 102.4v51.2c0 28.32 22.88 51.2 51.2 51.2s51.2-22.88 51.2-51.2v-51.2c0-113.12-91.68-204.8-204.8-204.8s-204.8 91.68-204.8 204.8v102.4h-256c-56.48 0-102.4 45.92-102.4 102.4v358.4c0 56.48 45.92 102.4 102.4 102.4h409.6c56.48 0 102.4-45.92 102.4-102.4v-358.4c0-56.48-45.92-102.4-102.4-102.4h-51.2v-102.4z"></path>
</svg>
